<svg xmlns="http://www.w3.org/2000/svg" width="1000" height="1000" viewBox="0 0 1000 1000">
  <defs>
    <style>
      .cls-1 {
        fill-rule: evenodd;
      }
    </style>
  </defs>
  <path id="Classic" class="cls-1" d="M259.052,462.635q33.812,0,49.316-8.789,22.825-13.06,22.827-37.6,0-17.211-11.841-28.32T289.447,376.82q-27.465,0-51.147,21.362-18.557,16.968-29.541,35.278h-21a19.683,19.683,0,0,0-13.672,5.066,16.055,16.055,0,0,0-5.615,12.39q0,11.719,13.671,11.719h10.01q-14.893,33.938-14.892,58.35,0,18.19,8.422,32.409a51.628,51.628,0,0,0,23.194,21.057q10.62,4.881,28.32,4.883H308q10.74,0,16.662-4.7t5.921-13q0-11.475-16.846-11.475H245.868q-18.923,0-27.038-7.69t-8.118-25.513q0-25.022,16.479-54.321h31.861Zm6.1-49.438q10.863-7.567,20.264-7.569a15.431,15.431,0,0,1,10.071,3.235,10.3,10.3,0,0,1,3.967,8.362q0,16.236-30.4,16.235H245.38A80.965,80.965,0,0,1,265.155,413.2Zm126.768-10.621,1.343-3.3a22.97,22.97,0,0,0,1.831-8.3,10.892,10.892,0,0,0-3.6-8.179,12.226,12.226,0,0,0-8.728-3.418q-12.331,0-17.945,13.672l-1.343,3.3L314.164,517.689q-3.541,8.789-3.54,12.573a14.027,14.027,0,0,0,5.249,11.475q5.247,4.274,14.282,4.272h21.973q9.765,0,15.2-4.15t5.432-11.6q0-10.863-15.5-10.864H344.437Zm89.658,73.365,1.343-3.3a22.246,22.246,0,0,0,1.953-8.179,11.162,11.162,0,0,0-3.6-8.423,12.535,12.535,0,0,0-8.972-3.418q-9.888,0-15.992,9.155-7.2-10.863-22.827-10.864-20.387,0-36.56,18.494t-16.174,41.931q0,15.5,8.24,25.085t21.667,9.583h13.916q8.542,0,17.7-8.179,3.783,8.179,14.283,8.179h15.625q9.64,0,15.136-4.211a13.869,13.869,0,0,0,5.493-11.658q0-10.74-15.38-10.742H464Zm-72.022,31.494q0-11.108,8.423-21.485t17.334-10.376a12.507,12.507,0,0,1,7.752,2.442,7.086,7.086,0,0,1,3.235,5.737,19.08,19.08,0,0,1-1.709,6.958l-8.545,21.118q-3.3,8.18-13.306,8.179h-3.052q-10.134,0-10.132-12.573h0Zm136.412-10.987q3.173,6.107,3.173,10.621,0,12.33-16.967,12.329h-14.16q-9.645,0-15.137,4.211a13.871,13.871,0,0,0-5.493,11.658q0,10.743,15.5,10.742H538.4q17.089,0,28.565-10.315A33.141,33.141,0,0,0,578.441,510q0-13.792-10.62-28.564l-6.958-9.644q-5.739-8.057-5.737-15.747a26.933,26.933,0,0,1,.488-4.761,32.219,32.219,0,0,0,.733-4.76,9.679,9.679,0,0,0-3.418-7.386,11.731,11.731,0,0,0-8.179-3.112q-8.912,0-14.893,11.84l-16.235,32.959q-3.541,7.082-3.54,11.353a10.4,10.4,0,0,0,3.967,8,13.243,13.243,0,0,0,8.972,3.479q9.888,0,15.259-12.085l2.32-5.616Zm89.78,0q3.173,6.107,3.174,10.621,0,12.33-16.968,12.329H607.8q-9.645,0-15.137,4.211a13.871,13.871,0,0,0-5.493,11.658q0,10.743,15.5,10.742h25.513q17.088,0,28.564-10.315A33.142,33.142,0,0,0,668.222,510q0-13.792-10.621-28.564l-6.958-9.644q-5.739-8.057-5.737-15.747a26.933,26.933,0,0,1,.488-4.761,32.076,32.076,0,0,0,.733-4.76,9.679,9.679,0,0,0-3.418-7.386,11.729,11.729,0,0,0-8.179-3.112q-8.911,0-14.892,11.84L603.4,480.823q-3.542,7.082-3.54,11.353a10.4,10.4,0,0,0,3.967,8,13.244,13.244,0,0,0,8.973,3.479q9.886,0,15.258-12.085l2.32-5.616ZM730.9,476.185q3.3-8.056,3.3-11.963a10.73,10.73,0,0,0-3.723-8.179,12.652,12.652,0,0,0-8.85-3.418q-12.452,0-18.066,13.794l-1.343,3.418L682.074,519.4q-2.563,6.225-2.563,10.254a13.923,13.923,0,0,0,6.164,11.962q6.164,4.395,16.907,4.395h19.409q9.765,0,15.2-4.15t5.432-11.6q0-10.863-15.381-10.864H713.446Zm-13.366-57.556a17.092,17.092,0,1,0,12.023-4.944A16.369,16.369,0,0,0,717.536,418.629ZM834.782,541.8a13.692,13.692,0,0,0,5.554-11.536q0-10.863-15.5-10.864H801.762q-12.7,0-18.006-3.6t-5.31-12.268a29.922,29.922,0,0,1,6.531-18.8q6.53-8.424,14.465-8.423,8.424,0,8.423,8.545,0,1.221-.122,2.563V490.1q0,10.5,11.231,10.5a14.063,14.063,0,0,0,11.6-5.8q4.515-5.8,4.517-14.832,0-12.937-9.033-21t-23.438-8.057q-21.24,0-36.987,16.846a56.192,56.192,0,0,0-15.747,39.673q0,17.091,9.582,27.832t24.842,10.742h35.4Q829.228,546.009,834.782,541.8Z"/>
</svg>
