<svg xmlns="http://www.w3.org/2000/svg" width="4167" height="4167" viewBox="0 0 4167 4167">
  <defs>
    <style>
      .cls-1 {
        fill-rule: evenodd;
      }
    </style>
  </defs>
  <path id="_github.com_AaronDKP" data-name="@github.com/AaronDKP" class="cls-1" d="M254.414,1985.48l1.831-4.76a29.363,29.363,0,0,0,2.746-11.35,15.506,15.506,0,0,0-5.035-11.72,17.569,17.569,0,0,0-12.543-4.76q-13.733,0-22.339,12.82Q209,1950.7,187.214,1950.69q-28.385,0-50.9,25.73t-22.522,58.32q0,21.6,11.444,34.97t30.121,13.37h19.409q11.9,0,24.9-11.54,5.124,11.535,19.776,11.54H238.3q29.479,0,52.826-32.23t23.346-72.87q0-41.385-30.67-67.48t-79.559-26.09a152.5,152.5,0,0,0-64,13.82,147.97,147.97,0,0,0-51.727,38.91,158.791,158.791,0,0,0-27.557,47.15q-9.982,26.475-9.979,52.1a115.252,115.252,0,0,0,12.268,52.92,102.967,102.967,0,0,0,34.79,39.36q26.732,18.135,79.284,18.13h47.608q28.38,0,28.381-19.41a15.726,15.726,0,0,0-4.578-11.44,15.236,15.236,0,0,0-11.352-4.67h-24.17q-57.5,0-69.763-1.65t-25.269-10.8q-29.663-21.06-29.663-62.44,0-41.745,28.748-75.81,34.422-41.01,88.073-41.01,32.775,0,52.46,16.29,19.682,16.305,19.684,43.58,0,26.55-10.9,46.51t-25.36,19.96H229.878Zm-100.525,43.77q0-15.39,11.719-29.94t24.169-14.56a17.659,17.659,0,0,1,10.8,3.39q4.575,3.39,4.577,8.15a27.057,27.057,0,0,1-2.38,9.7l-11.9,29.3q-4.764,11.535-18.677,11.53h-4.211q-14.1,0-14.1-17.57h0Zm300.564,4.57q4.76-11.715,4.761-17.39a16.063,16.063,0,0,0-5.4-12.18,18.532,18.532,0,0,0-13.092-5.03q-15.75,0-24.353,14.65-11.171-14.655-33.692-14.65-30.761,0-55.481,28.2t-24.719,63.35q0,21.8,12.177,35.34t31.769,13.55q10.252,0,21.789-6.96l-5.676,14.28H323.166q-32.778,0-52.185,10.81a66.187,66.187,0,0,0-24.811,23.71,60.507,60.507,0,0,0-9.063,31.95q0,26.19,18.768,43.58t46.966,17.39q53.834,0,81.849-68.66l7.69-18.86h30.4q14.461,0,22.7-6.32t8.239-17.48q0-16.125-23.254-16.12H408.493ZM365.1,2101.76q-17.947,0-17.944-19.23,0-16.845,11.993-31.95t25.177-15.11a19.656,19.656,0,0,1,12.177,3.66,11.1,11.1,0,0,1,4.852,9.16,21.367,21.367,0,0,1-1.831,7.51l-14.831,36.25q-4.031,9.7-19.593,9.71h0ZM324.631,2223.7q-9.888,10.44-23.071,10.44a21.209,21.209,0,0,1-15.381-6.04,19.664,19.664,0,0,1-6.226-14.65q0-12.63,9.064-19.59t25.543-6.96h31.677Q334.517,2213.27,324.631,2223.7Zm220.181-186.58q4.944-12.09,4.944-17.94a16.085,16.085,0,0,0-5.585-12.27,18.962,18.962,0,0,0-13.275-5.13q-18.678,0-27.1,20.69l-2.014,5.13-30.213,74.34q-3.845,9.33-3.845,15.38a20.875,20.875,0,0,0,9.247,17.94q9.245,6.6,25.36,6.6h29.114q14.647,0,22.8-6.23t8.148-17.39q0-16.3-23.072-16.3h-20.69Zm-20.05-86.33a25.629,25.629,0,1,0,18.036-7.42A24.531,24.531,0,0,0,524.762,1950.79Zm146.663,36.53q4.76-10.62,4.761-17.58a16.062,16.062,0,0,0-5.4-12.18,18.261,18.261,0,0,0-12.909-5.03q-18.5,0-27.1,20.32l-2.014,4.94-9.7,23.99h-8.423q-14.651,0-22.8,6.32t-8.148,17.67q0,15.93,20.507,15.93h2.747l-21.606,53.28-3.479,8.06a40.817,40.817,0,0,0-3.3,15.01q0,10.995,8.148,17.4t22.064,6.41h32.776q14.647,0,22.8-6.23t8.148-17.39q0-16.3-23.255-16.3H624.734l24.536-60.24h13.366q14.463,0,22.705-6.23t8.24-17.39q0-16.3-23.254-16.3h-5.676Zm141.08-63.36q4.758-11.535,4.76-17.39a16.062,16.062,0,0,0-5.4-12.18,18.27,18.27,0,0,0-12.909-5.04q-18.128,0-28.565,25.27l-79.651,196.47-2.014,4.95a33.785,33.785,0,0,0-2.746,12.08,14.929,14.929,0,0,0,5.31,11.54,18.541,18.541,0,0,0,12.817,4.76q19.041,0,28.748-23.99l20.507-50.35q12.815-31.86,31.5-31.86,13.912,0,13.916,10.44,0,4.02-3.113,11.9l-16.846,41.38q-4.213,10.26-4.211,16.85,0,9.705,7.965,16.38,7.965,6.69,19.684,6.69h36.8q14.646,0,22.8-6.23T870,2118.24q0-16.3-23.072-16.3H825.871l19.226-47.97q4.4-10.815,4.395-19.96a31.669,31.669,0,0,0-11.261-25q-11.26-9.795-28.839-9.79-12.455,0-31.678,10.43Zm223.845,112.79q4.755-11.895,4.76-17.57a16.177,16.177,0,0,0-5.5-12.27,18.619,18.619,0,0,0-13.18-5.13q-18.675,0-28.929,25.64l-22.889,56.39q-7.509,18.315-30.212,18.31-10.986,0-10.62-8.24a31.893,31.893,0,0,1,1.831-7.14l2.014-5.49,19.226-47.06,2.014-4.94a34,34,0,0,0,2.93-12.64,16.128,16.128,0,0,0-5.493-12.36,19.1,19.1,0,0,0-13.367-5.03q-18.127,0-28.564,25.45l-24.9,61.16q-4.762,11.715-4.76,20.5,0,15.39,10.62,25.46t26.733,10.07H944.8q15.2,0,25.268-11.91,5.124,11.91,20.508,11.91h32.779q14.64,0,22.79-6.32t8.15-17.49q0-8.6-5.31-12.36t-17.94-3.75H1009.8Zm149.68-109.68,2.02-5.12a33.009,33.009,0,0,0,2.93-12.64,16.026,16.026,0,0,0-5.59-12.36,19.9,19.9,0,0,0-13.82-5.03q-17.955,0-26.55,20.51l-2.02,5.12-76.72,189.15-2.01,4.94a33.844,33.844,0,0,0-2.93,12.64,16.409,16.409,0,0,0,5.49,12.45,18.87,18.87,0,0,0,13.37,5.13q16.47,0,24.17-13a41.885,41.885,0,0,0,30.94,13h17.4q14.28,0,27.46-9.53,37.725-27.27,37.72-76.17,0-25.26-13.18-41.1t-34.42-15.84a49.942,49.942,0,0,0-14.65,2.56Zm-54.56,134.22q10.425-25.815,27.83-25.82a16.062,16.062,0,0,1,12.45,5.22q4.755,5.22,4.76,13.46,0,10.62-6.32,23.99t-14.74,20.14a22.665,22.665,0,0,1-14.83,4.94q-12.27,0-21.42-11.72Zm117.64,41.93a25.41,25.41,0,1,0,18.13-7.51A24.489,24.489,0,0,0,1249.11,2103.22Zm207.09,32.32q8.325-6.315,8.33-17.3,0-16.3-23.26-16.3h-34.6q-19.05,0-27.01-5.4t-7.97-18.4a44.891,44.891,0,0,1,9.8-28.2q9.795-12.645,21.7-12.64,12.63,0,12.63,12.82c0,1.22-.06,2.5-0.18,3.85v4.02q0,15.75,16.85,15.75,10.6,0,17.39-8.7,6.765-8.685,6.77-22.24,0-19.41-13.54-31.5-13.56-12.075-35.16-12.08-31.86,0-55.48,25.27t-23.62,59.5q0,25.65,14.37,41.75,14.37,16.125,37.26,16.12h53.1Q1447.875,2141.86,1456.2,2135.54Zm44.31-110.87q-25.1,25.455-25.09,60.24,0,32.955,24.54,49.81,10.425,7.14,40.28,7.14,18.3,0,28.47-2.84a56.174,56.174,0,0,0,19.69-10.35q14.28-11.535,23.25-30.85a91.637,91.637,0,0,0,8.97-38.91q0-25.995-17.12-42.85t-43.67-16.84Q1525.585,1999.22,1500.51,2024.67Zm70.67,19.96q6.045,6.4,6.05,16.84,0,18.135-12.45,32.23-7.515,8.61-21.43,8.61-23.8,0-23.8-21.24,0-16.125,11.17-29.48t24.72-13.37Q1565.145,2038.22,1571.18,2044.63Zm302.76,8.97a50.706,50.706,0,0,0,4.03-19.23q0-14.82-11.81-24.99t-29.39-10.16q-25.635,0-46.14,21.42-12.27-21.42-36.8-21.42-11.355,0-19.14,3.48t-20.23,14.1q-3.84-15.015-19.78-15.02-15.375,0-23.07,18.86l-36.43,89.72-2.02,4.95a34.475,34.475,0,0,0-2.75,12.45,15.275,15.275,0,0,0,5.41,11.81,18.671,18.671,0,0,0,12.91,4.85q19.035,0,29.11-24.72l21.42-52.55q11.535-28.56,31.31-28.57a13.085,13.085,0,0,1,8.61,3.03,8.931,8.931,0,0,1,3.66,7.05q0,3.84-2.75,10.62l-20.69,51.08-2.01,4.95a35.543,35.543,0,0,0-2.75,12.45,15.512,15.512,0,0,0,5.31,11.72,18.158,18.158,0,0,0,12.82,4.94q19.23,0,29.3-24.54l20.51-50.53q5.49-13.92,14.64-22.34t18.5-8.43q12.075,0,12.08,11.91a18.468,18.468,0,0,1-1.46,6.77l-17.21,41.93q-4.95,12.27-4.95,19.41,0,10.44,7.51,16.85t19.59,6.41h37.17q14.46,0,22.62-6.23t8.14-17.39q0-16.3-23.07-16.3h-21.79Zm40.56,125.61a22.169,22.169,0,0,0-1.83,8.06,10.822,10.822,0,0,0,4.12,8.6,14.931,14.931,0,0,0,9.98,3.48q13.545,0,20.14-17.03l109.13-279.6q3.105-7.7,3.11-11.17a11.2,11.2,0,0,0-4.03-8.7,14.356,14.356,0,0,0-9.88-3.57q-13.74,0-20.33,17.21l-109.13,279.42Zm403.65-95.22q-7.515,18.51-7.51,28.57a26.034,26.034,0,0,0,9.98,21.15q9.99,8.145,25.73,8.15h44.13a29.573,29.573,0,0,0,20.51-7.6,24.106,24.106,0,0,0,8.42-18.59q0-17.58-20.51-17.58h-34.61l20.33-49.98h28.01a29.538,29.538,0,0,0,20.51-7.6,23.88,23.88,0,0,0,8.42-18.4q0-17.76-20.5-17.77h-18.68l31.49-78.91,1.65-4.22a27.889,27.889,0,0,0,2.2-9.88q0-9.165-6.59-14.29t-18.13-5.12q-45.225,0-73.24,11.9-43.59,18.5-73.79,73.97l-14.47,26.55h-13.55q-49.26,0-78.92,5.68a174.168,174.168,0,0,0-54.01,19.59q-32.595,19.05-51.46,47.88-18.855,28.845-18.86,59.97,0,38.265,24.45,64.18t60.52,25.91q58.77,0,101.62-74.52l60.61-104.92h50.72Zm-11.72-79.65,7.51-12.45q17.025-29.115,30.3-40.19t32.69-12.36l-26.37,65h-44.13Zm-134.4,137.52q-21.24,36.615-48.89,36.62-15.93,0-27.1-12.36t-11.16-29.76q0-19.035,11.62-37.72a98.084,98.084,0,0,1,31.22-31.12q30.765-19.41,83.13-19.41h15.57Zm429.11-105.11,2.01-4.94q2.925-7.14,2.93-12.27a16.735,16.735,0,0,0-5.4-12.63,18.785,18.785,0,0,0-13.46-5.13q-14.835,0-23.99,13.73-10.8-16.29-34.24-16.29-30.57,0-54.84,27.74t-24.26,62.89q0,23.265,12.36,37.63,12.36,14.385,32.5,14.38h20.88q12.81,0,26.55-12.27,5.67,12.27,21.42,12.27h23.44q14.46,0,22.7-6.32t8.24-17.49q0-16.11-23.07-16.11h-20.14Zm-108.03,47.24q0-16.65,12.63-32.22t26-15.57a18.772,18.772,0,0,1,11.63,3.67q4.845,3.66,4.85,8.6a28.764,28.764,0,0,1-2.56,10.44l-12.82,31.68q-4.95,12.27-19.96,12.26h-4.58q-15.2,0-15.19-18.86h0Zm200.4-42.11q-15.75,17.58-21.97,29.66a53.788,53.788,0,0,0-6.23,24.91q0,20.145,11.63,32.77t29.94,12.64h35.89q14.64,0,22.79-6.23t8.15-17.58q0-16.11-23.25-16.11h-23.08q-16.845,0-16.84-15.2t29.11-43.03l2.02-1.83q30.39,0,30.39-23.25,0-16.845-23.98-16.85h-42.85q-8.61,0-10.8-1.1t-3.3-5.49l-1.46-5.68q-3.12-12.81-16.67-12.81-13.725,0-21.24,18.49l-20.69,51.09q-4.035,10.065-4.03,14.28a15.834,15.834,0,0,0,5.5,12.27,19.782,19.782,0,0,0,13.73,4.94q13.545,0,21.97-20.51l6.23-15.38h19.04Zm117.46-17.21q-25.095,25.455-25.09,60.24,0,32.955,24.54,49.81,10.44,7.14,40.28,7.14,18.315,0,28.48-2.84a56.219,56.219,0,0,0,19.68-10.35q14.28-11.535,23.25-30.85a91.651,91.651,0,0,0,8.98-38.91q0-25.995-17.12-42.85t-43.67-16.84Q2836.055,1999.22,2810.97,2024.67Zm70.68,19.96q6.045,6.4,6.04,16.84,0,18.135-12.45,32.23-7.515,8.61-21.42,8.61-23.805,0-23.81-21.24,0-16.125,11.17-29.48t24.72-13.37Q2875.6,2038.22,2881.65,2044.63Zm218.53,8.05a50.263,50.263,0,0,0,4.03-18.49,32.083,32.083,0,0,0-11.17-25.09q-11.175-9.885-28.38-9.88-17.76,0-37.36,15.01-6.03-12.45-20.14-12.45-17.2,0-24.35,17.76l-36.99,91.19-2.01,4.94q-2.94,7.14-2.93,12.27a14.914,14.914,0,0,0,5.49,11.72,19.726,19.726,0,0,0,13.37,4.76q19.23,0,28.93-24.17l21.61-53.1q11.535-28.38,30.39-28.38a14.563,14.563,0,0,1,9.61,3.11,8.943,8.943,0,0,1,3.57,7.51,32.087,32.087,0,0,1-2.74,10.07l-16.12,39.92q-5.115,12.45-5.12,18.67a21.824,21.824,0,0,0,7.6,17.03q7.59,6.78,18.77,6.78h38.26q14.475,0,22.71-6.23t8.24-17.39q0-16.3-23.26-16.3h-21.97Zm133.39,95.4h-65q-34.065,0-54.02,11.54a65.209,65.209,0,0,0-24.35,24.99,69.174,69.174,0,0,0-8.97,34.33q0,29.85,20.96,49.17,20.97,19.3,53.56,19.32,39.555,0,70.13-28.02a113.031,113.031,0,0,0,19.04-22.34q7.32-11.535,20.14-40.1l2.2-5.13h12.82q48.705,0,83.59-15.74t62.53-50.17q48.885-61.155,48.89-134.59,0-48.15-28.75-73.79t-82.58-25.63h-58.6q-12.075,0-20.41,7.5a24.119,24.119,0,0,0-8.33,18.68q0,17.58,20.32,17.58h23.07Zm137.88-212.4q25.815,0,40.83,15.38t15.01,42.11q0,24-10.71,52.19a206.368,206.368,0,0,1-29.2,52.37q-38.28,50.355-95.03,50.35h-7.33Zm-180.91,293.06q-15.2,13.275-32.04,13.27a27.594,27.594,0,0,1-19.23-7.14,22.792,22.792,0,0,1-7.87-17.57q0-25.455,35.88-25.46h48.53Q3205.73,2215.465,3190.54,2228.74Zm599.21-291.41q14.835-15.57,14.83-26.37a19.571,19.571,0,0,0-5.86-14.56,20.064,20.064,0,0,0-14.65-5.76q-12.81,0-28.38,16.29l-96.13,100.53,6.41-15.57q9.51-23.43,9.52-42.11,0-26.37-20.14-43.95t-50.17-17.57q-40.29,0-70.22,29.93t-29.94,70.04q0,26.925,16.3,46.33t39.18,19.41q11.895,0,19.87-6.69a21.142,21.142,0,0,0,7.96-16.93q0-12.27-13.91-17.22-22.89-8.235-22.89-29.48,0-19.395,14.92-35.06t33.6-15.66a27.568,27.568,0,0,1,18.22,6.5q7.785,6.51,7.78,15.48,0,10.245-10.8,36.98l-47.61,117.19-2.2,5.31a38.7,38.7,0,0,0-3.11,13.92,17.063,17.063,0,0,0,6.04,13,20.776,20.776,0,0,0,14.47,5.49q20.325,0,31.31-27.47l37.9-93.2,48.53,131.11q8.055,21.24,17.94,27.92t34.06,6.68h60.79q16.29,0,25.45-7.05t9.16-19.5q0-18.12-25.82-18.12h-59.33q-16.845,0-21.97-13.55l-38.64-105.11Zm242.88,79.47q39.375,0,58.23-15.57,25.995-21.42,26-55.11,0-27.645-16.75-40.93t-51.91-13.27h-69.77q-16.11,0-24.99,6.86t-8.88,19.32q0,17.58,25.27,17.58h19.96l-63.54,156.19q-19.59,48.15-35.89,67.02-16.305,18.855-38.63,18.85-17.775,0-28.29-11.99-10.545-12-10.53-32.32a72.817,72.817,0,0,1,10.8-37.99,84,84,0,0,1,29.48-29.21q22.53-13.365,58.78-16.66,15.555-1.455,21.05-5.49,9.525-6.78,9.53-17.95a20.32,20.32,0,0,0-8.79-17.12q-8.79-6.495-23.26-6.5-30.03,0-60.61,12.73t-50.9,33.6q-37.725,38.64-37.72,90.27,0,38.625,23.81,62.8,23.79,24.18,62.07,24.17,36.255,0,63.72-21.6a127.027,127.027,0,0,0,31.22-35.89q12.36-21.06,35.06-76.72l30.4-75.07h25.08Zm7.88-81.12h12.27q16.65,0,16.66,13.55,0,23.8-29.3,23.8h-14.83Z"/>
</svg>
