<svg xmlns="http://www.w3.org/2000/svg" width="1000" height="1000" viewBox="0 0 1000 1000">
  <defs>
    <style>
      .cls-1 {
        fill-rule: evenodd;
      }
    </style>
  </defs>
  <path id="Etch-a-Sketch" class="cls-1" d="M110.331,460.4h-2.2a13.214,13.214,0,0,0-9.115,3.337,10.5,10.5,0,0,0-3.743,8.138q0,7.977,9.114,7.975h2.686L89.009,524.286H60.2q-15.137,0-24.007,5.127A28.9,28.9,0,0,0,25.37,540.562a31.116,31.116,0,0,0-3.988,15.381q0,13.183,9.318,21.728t23.722,8.545q17.658,0,31.25-12.451a49.19,49.19,0,0,0,8.423-9.929,164.1,164.1,0,0,0,8.911-17.822l1.058-2.278h62.5a13.085,13.085,0,0,0,9.155-3.378,10.933,10.933,0,0,0,3.7-8.423q0-7.65-9.115-7.649H111.959l18.066-44.434h16.439a13.116,13.116,0,0,0,9.114-3.377,10.62,10.62,0,0,0,3.744-8.179q0-7.893-9.115-7.894H137.919l12.37-30.517h36.865a13.081,13.081,0,0,0,9.155-3.378,10.928,10.928,0,0,0,3.7-8.422q0-7.648-11.23-7.65H146.789q-7.323,0-10.009,1.79t-5.372,8.382L114.97,460.4h-4.639Zm-40.324,99.61q-6.714,5.939-14.038,5.94a12.726,12.726,0,0,1-8.748-3.133,9.963,9.963,0,0,1-3.54-7.772q0-11.312,15.95-11.311H81.116Q76.721,554.07,70.007,560.012ZM221.7,452.834a20.124,20.124,0,0,0,2.116-7.813,7.13,7.13,0,0,0-2.4-5.411,8.123,8.123,0,0,0-5.737-2.238q-8.22,0-12.044,9.033l-0.9,2.2-4.314,10.661H194.68q-6.512,0-10.132,2.808a9.366,9.366,0,0,0-3.621,7.853q0,7.08,9.114,7.08h1.221l-9.6,23.681-1.546,3.581a18.15,18.15,0,0,0-1.465,6.673,9.311,9.311,0,0,0,3.621,7.731q3.621,2.85,9.807,2.849h14.567q6.51,0,10.132-2.767a9.175,9.175,0,0,0,3.621-7.731q0-7.242-10.335-7.243h-9.115L211.851,477h5.941q6.427,0,10.091-2.767a9.135,9.135,0,0,0,3.662-7.731q0-7.242-10.335-7.243h-2.523Zm64.777,65.877a9.127,9.127,0,0,0,3.7-7.69q0-7.242-10.335-7.243H264.462q-8.464,0-12-2.4t-3.54-8.179a19.95,19.95,0,0,1,4.354-12.532q4.353-5.616,9.644-5.615,5.614,0,5.615,5.7,0,0.815-.082,1.709v1.791q0,7,7.487,7a9.378,9.378,0,0,0,7.732-3.865,15.62,15.62,0,0,0,3.011-9.888,17.875,17.875,0,0,0-6.022-14q-6.024-5.372-15.625-5.371-14.161,0-24.659,11.23a37.465,37.465,0,0,0-10.5,26.449q0,11.394,6.389,18.554a21.156,21.156,0,0,0,16.56,7.162h23.6Q282.773,521.519,286.475,518.711Zm62.987-94.035q2.115-5.127,2.116-7.731a7.134,7.134,0,0,0-2.4-5.412,8.127,8.127,0,0,0-5.737-2.238q-8.056,0-12.7,11.231l-35.4,87.321-0.895,2.2a15.015,15.015,0,0,0-1.221,5.371,6.635,6.635,0,0,0,2.36,5.127,8.238,8.238,0,0,0,5.7,2.116q8.463,0,12.776-10.661l9.115-22.379q5.7-14.16,14-14.16,6.184,0,6.185,4.638a16.063,16.063,0,0,1-1.383,5.29l-7.487,18.392a20.756,20.756,0,0,0-1.872,7.487,9.16,9.16,0,0,0,3.54,7.283,13.145,13.145,0,0,0,8.749,2.971h16.357q6.51,0,10.132-2.767a9.175,9.175,0,0,0,3.621-7.731q0-7.242-10.254-7.243H355.4l8.544-21.322a23.678,23.678,0,0,0,1.954-8.87,14.072,14.072,0,0,0-5-11.109q-5.005-4.351-12.818-4.353-5.535,0-14.078,4.638Zm36.66,55.176a8.053,8.053,0,0,0-5.615,1.913,7.027,7.027,0,0,0,.04,10.091,8.088,8.088,0,0,0,5.575,1.912h16.439q7.73,0,7.731-7,0-6.915-7.731-6.917H386.122Zm94.521-5.045,0.9-2.2a14.836,14.836,0,0,0,1.3-5.452,7.438,7.438,0,0,0-2.4-5.615,8.352,8.352,0,0,0-5.981-2.279q-6.592,0-10.661,6.1-4.8-7.242-15.218-7.242-13.593,0-24.374,12.329t-10.783,27.954q0,10.335,5.494,16.723a18.121,18.121,0,0,0,14.445,6.389h9.277q5.7,0,11.8-5.453,2.522,5.454,9.521,5.453h10.417q6.427,0,10.091-2.808a9.244,9.244,0,0,0,3.662-7.772q0-7.16-10.254-7.161h-8.951Zm-48.014,21q0-7.406,5.615-14.323t11.556-6.918a8.335,8.335,0,0,1,5.168,1.628,4.724,4.724,0,0,1,2.157,3.825,12.716,12.716,0,0,1-1.14,4.639l-5.7,14.078q-2.2,5.454-8.871,5.453h-2.034q-6.756,0-6.755-8.382h0Zm66.608-15.951a8.053,8.053,0,0,0-5.615,1.913,7.026,7.026,0,0,0,.041,10.091,8.083,8.083,0,0,0,5.574,1.912h16.439q7.731,0,7.731-7,0-6.915-7.731-6.917H499.237Zm106.729-13.916q17.007,0,24.821-4.883,13.752-8.544,13.753-24.577,0-12.042-8.667-19.612t-22.42-7.569q-18.311,0-31.413,10.539t-14.73,26.652H553.394q-7.162,0-11.108,3.052a10.307,10.307,0,0,0-3.947,8.667q0,7.733,11.23,7.731h21.973q3.336,6.431,11.067,14.974,11.067,12.289,14.4,18.148a25.851,25.851,0,0,1,3.336,13.021,27.086,27.086,0,0,1-8.219,19.653,26.309,26.309,0,0,1-19.369,8.341q-10.091,0-16.642-6.307a21.246,21.246,0,0,1-6.551-15.991,24.011,24.011,0,0,1,3.744-12.37,28.391,28.391,0,0,1,9.358-9.765l6.511-3.988q6.348-3.906,6.347-9.277a8.414,8.414,0,0,0-2.767-6.511,10.219,10.219,0,0,0-7.161-2.522q-8.465,0-18.473,7.894-18.88,14.892-18.88,37.19,0,18.229,12.125,29.908t31.087,11.678q24.495,0,39.633-17.334A43.179,43.179,0,0,0,622.16,513.3q0-17.251-12.532-32.714l-4.313-5.209-7.487-9.44h8.138Zm-10.214-31.9a25.874,25.874,0,0,1,15.992-5.452,15.84,15.84,0,0,1,8.992,2.278,6.966,6.966,0,0,1,3.377,6.022q0,9.6-16.52,9.6H588.062Q588.549,439.489,595.752,434.035Zm105.386,44.189,1.872-1.383q6.021-4.475,6.022-9.928a7.271,7.271,0,0,0-2.279-5.453,7.88,7.88,0,0,0-5.7-2.2q-4.071,0-9.766,4.232l-18.31,13.59,20.752-51.107,0.9-2.2a15.105,15.105,0,0,0,1.3-5.615,7.2,7.2,0,0,0-2.442-5.453,8.287,8.287,0,0,0-5.859-2.278q-8.22,0-11.963,9.114l-0.9,2.2L639.94,507.6l-0.9,2.2a14.359,14.359,0,0,0-1.3,5.452,6.79,6.79,0,0,0,2.4,5.249,8.507,8.507,0,0,0,5.9,2.157q8.463,0,12.858-10.824l9.114-22.542L686.9,517.531,687.873,519q2.521,3.662,5.941,3.662a9.916,9.916,0,0,0,7.039-3.011,9.178,9.178,0,0,0,3.133-6.755q0-2.358-2.36-6.022L689.012,487.1Zm47.4,19.45q9.846,0,14.812-3.011,8.951-5.289,8.951-16.276a18.446,18.446,0,0,0-6.469-14.689q-6.47-5.572-17.131-5.574-14.648,0-25.268,11.393a38.391,38.391,0,0,0-10.62,27.1q0,12.207,6.713,18.555t19.572,6.348h23.031q6.51,0,10.132-2.767a9.175,9.175,0,0,0,3.621-7.731q0-7.242-10.254-7.243H741.46q-9.2,0-9.2-6.1H748.54Zm-0.569-22.949q5.371,0,5.615,4.313,0.245,3.827-8.464,3.825h-8.951q4.313-8.136,11.8-8.138h0Zm76.373-21.891a20.106,20.106,0,0,0,2.116-7.813,7.132,7.132,0,0,0-2.4-5.411,8.126,8.126,0,0,0-5.738-2.238q-8.22,0-12.044,9.033l-0.895,2.2-4.313,10.661h-3.744q-6.512,0-10.132,2.808a9.369,9.369,0,0,0-3.621,7.853q0,7.08,9.115,7.08h1.22l-9.6,23.681-1.546,3.581a18.17,18.17,0,0,0-1.465,6.673,9.309,9.309,0,0,0,3.622,7.731q3.619,2.85,9.806,2.849h14.567q6.51,0,10.132-2.767a9.175,9.175,0,0,0,3.621-7.731q0-7.242-10.335-7.243h-9.114L814.5,477h5.941q6.427,0,10.091-2.767a9.133,9.133,0,0,0,3.662-7.731q0-7.242-10.335-7.243h-2.523Zm64.777,65.877a9.125,9.125,0,0,0,3.7-7.69q0-7.242-10.335-7.243H867.108q-8.464,0-12-2.4t-3.541-8.179a19.95,19.95,0,0,1,4.354-12.532q4.353-5.616,9.644-5.615,5.614,0,5.615,5.7c0,0.543-.028,1.113-0.081,1.709v1.791q0,7,7.487,7a9.376,9.376,0,0,0,7.731-3.865,15.62,15.62,0,0,0,3.011-9.888,17.875,17.875,0,0,0-6.022-14q-6.024-5.372-15.625-5.371-14.16,0-24.658,11.23a37.46,37.46,0,0,0-10.5,26.449q0,11.394,6.388,18.554a21.156,21.156,0,0,0,16.561,7.162h23.6Q885.419,521.519,889.121,518.711Zm62.987-94.035q2.115-5.127,2.116-7.731a7.134,7.134,0,0,0-2.4-5.412,8.127,8.127,0,0,0-5.737-2.238q-8.056,0-12.7,11.231l-35.4,87.321-0.895,2.2a15.015,15.015,0,0,0-1.221,5.371,6.635,6.635,0,0,0,2.36,5.127,8.238,8.238,0,0,0,5.7,2.116q8.463,0,12.777-10.661l9.114-22.379q5.7-14.16,14-14.16,6.183,0,6.185,4.638a16.071,16.071,0,0,1-1.384,5.29l-7.487,18.392a20.756,20.756,0,0,0-1.872,7.487,9.16,9.16,0,0,0,3.54,7.283,13.145,13.145,0,0,0,8.749,2.971h16.357q6.51,0,10.132-2.767a9.175,9.175,0,0,0,3.621-7.731q0-7.242-10.253-7.243h-9.359l8.545-21.322a23.694,23.694,0,0,0,1.953-8.87,14.069,14.069,0,0,0-5-11.109q-5.005-4.351-12.817-4.353-5.535,0-14.079,4.638Z"/>
</svg>
