<svg xmlns="http://www.w3.org/2000/svg" width="1000" height="1000" viewBox="0 0 1000 1000">
  <defs>
    <style>
      .cls-1 {
        fill-rule: evenodd;
      }
    </style>
  </defs>
  <path id="Modern" class="cls-1" d="M351.488,408.558l2.808-6.836a23.341,23.341,0,0,0,1.953-8.789,13.883,13.883,0,0,0-5.066-10.8,18.1,18.1,0,0,0-12.39-4.456q-10.5,0-22.583,11.841l-36.621,36.011-7.446-28.077q-2.931-10.986-6.9-15.38t-10.8-4.4q-10.743,0-17.09,15.747L188.891,512.684Q175.828,544.667,164.9,557.3t-25.7,12.635q-12.332,0-19.409-8t-7.08-21.911A47.518,47.518,0,0,1,119.982,515a56.985,56.985,0,0,1,19.592-19.409q14.892-8.91,39.185-11.108,10.5-.976,14.16-3.663a14.317,14.317,0,0,0,6.348-12.084,13.3,13.3,0,0,0-5.982-11.353q-5.982-4.272-15.991-4.272-19.656,0-39.917,8.483t-33.814,22.278q-25.148,25.881-25.146,59.937,0,26,15.991,42.175t41.626,16.174a67.577,67.577,0,0,0,42.6-14.4,84.221,84.221,0,0,0,20.874-23.621q8.057-13.612,23.437-51.452L252.733,439.2l3.418,15.137q2.929,13.55,12.818,13.55,7.568,0,15.991-9.155l23.559-25.269-31.372,73.487q-5.127,12.207-5.127,18.554,0,9.888,6.9,15.2t19.593,5.31H321.7q10.74,0,16.663-4.639t5.92-12.939q0-11.6-16.968-11.6H307.543Zm25.694,59.326q-16.726,16.968-16.724,40.161,0,21.973,16.357,33.2,6.959,4.761,26.856,4.761,12.205,0,18.982-1.892a37.493,37.493,0,0,0,13.122-6.9,56.4,56.4,0,0,0,15.5-20.569,61.076,61.076,0,0,0,5.982-25.94q0-17.332-11.414-28.564t-29.114-11.231Q393.905,450.916,377.182,467.884ZM424.3,481.19q4.027,4.273,4.028,11.23a31.54,31.54,0,0,1-8.3,21.485q-5.007,5.739-14.282,5.737-15.87,0-15.869-14.16a29.952,29.952,0,0,1,7.446-19.654q7.445-8.908,16.48-8.911A13.772,13.772,0,0,1,424.3,481.19Zm173.764-80.078,1.465-3.3a24.132,24.132,0,0,0,1.831-8.545,10.747,10.747,0,0,0-3.662-8.24,12.716,12.716,0,0,0-8.911-3.357q-12.452,0-19.409,17.09l-27.222,66.772q-8.788-10.62-23.559-10.62-20.022,0-36.072,18.8t-16.052,42.358q0,15.381,8.117,24.659t21.668,9.277h15.5q8.909,0,16.723-7.813,4.395,7.813,13.916,7.813h16.48q9.642,0,15.136-4.15a13.7,13.7,0,0,0,5.494-11.6q0-10.863-15.5-10.864H550.092ZM495.16,509.144q0-12.328,8.24-22.949t17.761-10.621a11.788,11.788,0,0,1,7.751,2.564,7.8,7.8,0,0,1,3.113,6.225,18.473,18.473,0,0,1-1.709,6.348l-9.155,22.583q-2.686,6.715-11.108,6.714h-4.639q-10.254,0-10.254-10.864h0Zm145.444,1.1q14.769,0,22.217-4.516,13.427-7.933,13.428-24.414,0-13.671-9.705-22.034t-25.7-8.362q-21.972,0-37.9,17.09a57.589,57.589,0,0,0-15.93,40.649q0,18.312,10.07,27.833t29.358,9.521H660.99q9.765,0,15.2-4.15t5.432-11.6q0-10.863-15.381-10.864H629.984q-13.8,0-13.794-9.156H640.6Zm-0.854-34.423q8.056,0,8.423,6.469,0.366,5.739-12.7,5.738H622.05q6.468-12.205,17.7-12.207h0Zm92.222,3.54q-10.5,11.718-14.649,19.775a35.837,35.837,0,0,0-4.15,16.6q0,13.429,7.751,21.85t19.959,8.423h23.925q9.765,0,15.2-4.15t5.432-11.719q0-10.74-15.5-10.742h-15.38q-11.233,0-11.231-10.132t19.409-28.687l1.343-1.22q20.262,0,20.264-15.5,0-11.23-15.992-11.231H739.784q-5.739,0-7.2-.732t-2.2-3.662l-0.977-3.784Q727.331,435.9,718.3,435.9q-9.156,0-14.161,12.329l-13.793,34.057Q687.66,489,687.66,491.81a10.558,10.558,0,0,0,3.662,8.178,13.173,13.173,0,0,0,9.155,3.3q9.033,0,14.649-13.671l4.15-10.254h12.7Zm165.1,7.2a33.489,33.489,0,0,0,2.686-12.329,21.366,21.366,0,0,0-7.447-16.724q-7.446-6.591-18.92-6.592-11.842,0-24.9,10.01-4.028-8.3-13.428-8.3-11.475,0-16.235,11.841l-24.658,60.791-1.343,3.3a22.21,22.21,0,0,0-1.953,8.179,9.942,9.942,0,0,0,3.662,7.812,13.14,13.14,0,0,0,8.911,3.174q12.817,0,19.287-16.113l14.405-35.4q7.69-18.92,20.263-18.921a9.71,9.71,0,0,1,6.409,2.076,5.954,5.954,0,0,1,2.38,5,21.479,21.479,0,0,1-1.831,6.714l-10.742,26.612q-3.418,8.3-3.418,12.451a14.558,14.558,0,0,0,5.066,11.352,18.11,18.11,0,0,0,12.512,4.517h25.513q9.642,0,15.137-4.15a13.7,13.7,0,0,0,5.493-11.6q0-10.863-15.5-10.864H883.764Z"/>
</svg>
