<svg xmlns="http://www.w3.org/2000/svg" width="1000" height="1000" viewBox="0 0 1000 1000">
  <defs>
    <style>
      .cls-1 {
        fill-rule: evenodd;
      }
    </style>
  </defs>
  <path id="Rainbow" class="cls-1" d="M263.385,456.837a55.912,55.912,0,0,0,11.536-34.729q0-21.484-14.16-33.326a35.444,35.444,0,0,0-14.222-7.568q-7.386-1.832-23.254-1.831H182.758q-10.743,0-16.6,4.578t-5.859,13q0,11.6,16.846,11.6h12.573L147.479,512.684q-13.064,32.106-23.986,44.678T97.675,569.935q-12.085,0-19.1-8T71.552,540.15a47.812,47.812,0,0,1,7.2-25.025,57.171,57.171,0,0,1,19.653-19.531q14.769-8.91,39.185-11.108,10.5-1.1,14.16-3.663a14.115,14.115,0,0,0,6.348-12.084,13.386,13.386,0,0,0-5.921-11.292q-5.922-4.332-15.442-4.333a104.561,104.561,0,0,0-40.4,8.483Q75.944,470.084,62.4,483.875,37.248,509.756,37.25,543.812q0,26.121,15.991,42.236t41.748,16.113q35.4,0,58.716-31.494a116.32,116.32,0,0,0,11.414-18.86q4.942-10.191,16.662-39.123L198.139,472.4l35.278,84.961q9.031,21.972,32.226,21.972h56.275q10.863,0,16.724-4.638t5.859-13.062q0-11.475-16.846-11.475H276.63l-4.883.122q-8.057,0-13.062-11.84l-25.756-61.158A55.9,55.9,0,0,0,263.385,456.837ZM224.14,408.558h2.685q16.113,0,16.113,16.846,0,14.647-13.183,23.315-6.839,4.518-20.752,5.371l-3.54.244Zm159.97,67.383,1.343-3.3a22.246,22.246,0,0,0,1.953-8.179,11.158,11.158,0,0,0-3.6-8.423,12.533,12.533,0,0,0-8.972-3.418q-9.888,0-15.991,9.155-7.2-10.863-22.827-10.864-20.388,0-36.56,18.494T283.28,511.341q0,15.5,8.24,25.085t21.667,9.583H327.1q8.544,0,17.7-8.179,3.782,8.179,14.282,8.179h15.625q9.642,0,15.137-4.211a13.869,13.869,0,0,0,5.493-11.658q0-10.74-15.381-10.742H366.532Zm-72.021,31.494q0-11.108,8.423-21.485t17.334-10.376a12.506,12.506,0,0,1,7.751,2.442,7.086,7.086,0,0,1,3.235,5.737,19.059,19.059,0,0,1-1.709,6.958l-8.545,21.118q-3.3,8.18-13.306,8.179h-3.051q-10.134,0-10.132-12.573h0Zm141.782-31.25q3.3-8.056,3.3-11.963a10.73,10.73,0,0,0-3.723-8.179,12.654,12.654,0,0,0-8.85-3.418q-12.451,0-18.067,13.794l-1.343,3.418L405.043,519.4q-2.563,6.225-2.564,10.254a13.924,13.924,0,0,0,6.165,11.962q6.162,4.395,16.907,4.395H444.96q9.765,0,15.2-4.15t5.432-11.6q0-10.863-15.381-10.864H436.415ZM440.5,418.629a17.093,17.093,0,1,0,12.024-4.944A16.369,16.369,0,0,0,440.5,418.629Zm135.984,67.932a33.489,33.489,0,0,0,2.686-12.329,21.366,21.366,0,0,0-7.447-16.724q-7.446-6.591-18.92-6.592-11.842,0-24.9,10.01-4.027-8.3-13.428-8.3-11.475,0-16.235,11.841l-24.658,60.791-1.343,3.3a22.21,22.21,0,0,0-1.953,8.179,9.942,9.942,0,0,0,3.662,7.812,13.14,13.14,0,0,0,8.911,3.174q12.817,0,19.287-16.113l14.405-35.4q7.69-18.92,20.263-18.921a9.71,9.71,0,0,1,6.409,2.076,5.954,5.954,0,0,1,2.38,5,21.479,21.479,0,0,1-1.831,6.714l-10.742,26.612q-3.418,8.3-3.418,12.451a14.558,14.558,0,0,0,5.066,11.352,18.11,18.11,0,0,0,12.512,4.517H572.7q9.642,0,15.137-4.15a13.7,13.7,0,0,0,5.493-11.6q0-10.863-15.5-10.864H563.183Zm104.673-83.74L682.5,399.4a21.979,21.979,0,0,0,1.953-8.423,10.675,10.675,0,0,0-3.723-8.24,13.264,13.264,0,0,0-9.217-3.357q-11.964,0-17.7,13.672l-1.343,3.418-51.147,126.1-1.343,3.3a22.635,22.635,0,0,0-1.953,8.423,10.931,10.931,0,0,0,3.662,8.3,12.58,12.58,0,0,0,8.911,3.418q10.987,0,16.114-8.667a27.905,27.905,0,0,0,20.629,8.667h11.6q9.522,0,18.311-6.348Q702.4,521.473,702.4,488.88q0-16.845-8.789-27.4t-22.949-10.559a33.4,33.4,0,0,0-9.766,1.709ZM644.784,492.3q6.959-17.213,18.555-17.212a10.709,10.709,0,0,1,8.3,3.479,12.8,12.8,0,0,1,3.174,8.972q0,7.082-4.211,15.992t-9.827,13.427a15.1,15.1,0,0,1-9.887,3.3q-8.181,0-14.283-7.812Zm83.555-24.414q-16.727,16.968-16.724,40.161,0,21.973,16.358,33.2,6.957,4.761,26.855,4.761,12.206,0,18.982-1.892a37.485,37.485,0,0,0,13.122-6.9,56.4,56.4,0,0,0,15.5-20.569,61.076,61.076,0,0,0,5.982-25.94q0-17.332-11.414-28.564t-29.114-11.231Q745.062,450.916,728.339,467.884Zm47.119,13.306q4.028,4.273,4.028,11.23a31.535,31.535,0,0,1-8.3,21.485q-5.005,5.739-14.282,5.737-15.87,0-15.869-14.16a29.952,29.952,0,0,1,7.446-19.654q7.444-8.908,16.48-8.911A13.772,13.772,0,0,1,775.458,481.19Zm134.458-11.231q0.12-1.341.122-4.15,0-6.836-4.15-10.864t-11.231-4.029q-11.475,0-20.142,12.451l-27.221,38.941,3.418-34.18q0.243-2.564.244-4.639,0-12.57-11.475-12.573-7.69,0-12.146,5.31t-5.188,15.2l-3.418,51.147a20.144,20.144,0,0,0-.122,2.442q0,10.011,5.249,16.357a16.646,16.646,0,0,0,13.428,6.348q9.522,0,17.334-11.353l24.9-35.766-4.028,21.972a28.972,28.972,0,0,0-.366,4.517,20.86,20.86,0,0,0,5.493,14.649,17.535,17.535,0,0,0,13.428,5.981q9.64,0,18.676-11.353L958.5,478.748q7.444-9.4,7.446-15.136a12.447,12.447,0,0,0-3.54-9.1,12.132,12.132,0,0,0-9.033-3.6q-8.668,0-15.869,9.4l-2.32,2.929L906.5,500.6Z"/>
</svg>
