<svg xmlns="http://www.w3.org/2000/svg" width="4167" height="4167" viewBox="0 0 4167 4167">
  <defs>
    <style>
      .cls-1 {
        fill-rule: evenodd;
      }
    </style>
  </defs>
  <path id="Resize" class="cls-1" d="M1222.7,1235.15q57.735-75.96,57.74-173.58,0-107.388-70.86-166.561-34.215-28.687-71.16-37.828-36.96-9.141-116.36-9.156H819.438q-53.578,0-82.781,22.906-29.228,22.921-29.219,65.062,0,58.032,83.922,58.032h62.859L643.047,1514.73q-65.3,160.545-119.922,223.42t-129.078,62.87q-60.422,0-95.515-39.96-35.11-39.99-35.094-108.94,0-65.28,36.031-125.08t98.328-97.66q73.875-44.52,196.047-55.53,52.5-5.475,70.844-18.29,31.734-22.575,31.75-60.43,0-34.77-29.641-56.43t-77.3-21.68q-100.242,0-202.3,42.41T217.328,1370.79Q91.422,1500.135,91.438,1670.37q0,130.575,80,211.12,79.992,80.52,208.859,80.53,177.094,0,293.75-157.54a581.337,581.337,0,0,0,57.094-94.35q24.726-50.97,83.375-195.7l81.828-201.51,176.386,425.15q45.15,109.95,161.13,109.95h281.37q54.45,0,83.83-23.2,29.37-23.22,29.38-65.37,0-57.42-84.52-57.43H1264.38q-40.29,0-65.3-59.15l-128.8-305.53Q1164.975,1311.105,1222.7,1235.15ZM1026.34,994.025h13.58q81.525,0,81.52,84.105,0,73.125-66.31,116.41-34.4,22.545-104.364,26.81l-17.813,1.22Zm563.64,508q73.785,0,111-22.53,67.08-39.585,67.08-121.81,0-68.205-48.51-109.94-48.525-41.715-128.43-41.72-109.83,0-189.45,85.38-79.62,85.365-79.61,203.05,0,91.455,50.34,139.01,50.355,47.58,146.79,47.56h172.73q48.825,0,75.98-20.73t27.16-57.97q0-54.285-76.89-54.3H1536.89q-68.985,0-68.97-46h122.06Zm-4.11-171q40.365,0,42.19,31.8,1.83,28.215-63.7,28.2h-67.14q32.385-60,88.65-60h0Zm475.41,102.21q16.095,30.54,16.11,53.12,0,61.7-85.5,61.67h-70.8q-48.03,0-75.36,21.05-27.345,21.045-27.34,58.27,0,53.685,77.08,53.68h127.56q85.5,0,142.94-51.57,57.42-51.57,57.42-128.5,0-68.985-53.3-142.85l-34.91-48.22q-28.8-40.29-28.79-78.75a136.511,136.511,0,0,1,2.4-23.81q3.585-18.3,3.6-23.8,0-21.375-17.07-36.93t-40.84-15.57q-44.49,0-74.36,59.19l-81.06,164.72q-17.67,35.385-17.67,56.75,0,22.575,19.84,39.95,19.83,17.4,44.88,17.39,49.425,0,76.31-60.29l11.59-28.02Zm475.49-101.36q16.5-40.29,16.52-59.85,0-23.8-18.66-40.9t-44.34-17.1q-62.4,0-90.52,68.99l-6.72,17.09-100.92,247.85q-12.84,31.125-12.84,51.28,0,37.845,30.92,59.83t84.81,21.96h97.05q48.84,0,76.03-20.73t27.19-57.97q0-54.285-76.99-54.3h-68.96Zm-66.72-288.08q-24.765,24.78-24.76,60.23,0,35.49,24.76,60.24,24.75,24.765,60.24,24.76,35.46,0,60.23-24.76,24.75-24.75,24.77-60.24,0-35.46-24.77-60.23-24.765-24.75-60.23-24.77Q2494.8,1019.02,2470.05,1043.79Zm582.03,317.39q38.445-37.845,38.45-75.11,0-72.045-84.87-72.05H2800.58q-37.74,0-63.89,23.49t-26.16,57.62q0,54.9,66.41,54.89h15.22l67.62-2.28-199.39,192.28q-40.875,39.69-40.86,70.8,0,32.37,22.22,51.28,22.215,18.945,59.96,18.92h284.42q48.93,0,76.17-20.73t27.23-57.97q0-54.285-77.15-54.3H2858.56Zm347.55,140.84q73.77,0,111-22.53,67.08-39.585,67.07-121.81,0-68.205-48.51-109.94-48.51-41.715-128.42-41.72-109.83,0-189.46,85.38-79.605,85.365-79.61,203.05,0,91.455,50.35,139.01,50.34,47.58,146.78,47.56h172.73q48.825,0,75.99-20.73,27.135-20.745,27.15-57.97,0-54.285-76.89-54.3H3346.53q-68.97,0-68.97-46h122.07Zm-4.11-171q40.35,0,42.18,31.8,1.83,28.215-63.7,28.2h-67.14q32.385-60,88.66-60h0Z"/>
  <path id="Grid" class="cls-1" d="M2356.41,2346.38q17.01-42.015,17.03-61.53,0-31.68-21.97-51.8-21.99-20.1-55.53-20.1-29.91,0-72.02,24.14l-32.34,18.71q-42.735,24.15-83.61,24.15-91.545,0-91.53-77.85l0.17-12.15h139.17q145.83,0,218.44-43.9,109.215-65.85,109.22-187.79,0-86.565-58.89-141.44t-152.27-54.87q-112.905,0-214.5,74.92-101.625,74.895-168.12,207.08H1785.3q-41.085,0-68.97,25.35t-27.89,62.61q0,58.035,68.78,58.04h100.09q0,106.125,57.38,171.06t150.75,64.94a274.9,274.9,0,0,0,94.61-16.88l-20.75,51.88-97.05,1.21q-182.535,0-286.91,58.04-170.895,96.51-170.9,274.87,0,112.995,75.98,188.44,75.99,75.42,189.53,75.44,120.24,0,200.81-76.66t154.44-262.95l45.17-112.39h122.08q53.13,0,83.06-22.91,29.91-22.9,29.93-63.24,0-59.85-84.91-59.85h-90.34Zm-311.69,347.96q-44.535,110.6-89.38,160.11t-100.33,49.5q-45.75,0-77.17-33-31.395-33-31.4-80.68,0-51.33,36.59-93.79,36.615-42.48,100.05-65.1,68.3-24.435,197.01-24.43Zm115.44-752.21q53.3-37.17,100.21-37.18,30.48,0,50.27,16.15,19.785,16.17,19.8,40.55,0,82.3-150.86,82.3H2061.17Q2106.845,1979.33,2160.16,1942.13Zm601.38,331.82q-52.74,58.545-73.6,98.81t-20.84,82.94q0,67.065,38.87,109.17,38.9,42.09,100.13,42.08h119.62q48.945,0,76.16-20.74t27.22-58.58q0-53.67-77.75-53.68h-76.89q-56.37,0-56.36-50.61t97.23-143.3l6.72-6.09q101.04,0,101.05-77.71,0-56.295-79.67-56.29H2800.6q-28.7,0-36-3.68-7.32-3.675-10.97-18.4l-4.89-19q-10.38-42.915-55.52-42.92-45.75,0-70.76,61.84l-68.94,170.84q-13.425,33.69-13.42,47.75,0,24.525,18.3,41.03,18.27,16.56,45.75,16.54,45.1,0,73.18-68.58l20.74-51.42h63.47Zm563.8-16.16q16.5-40.29,16.51-59.84,0-23.82-18.65-40.91t-44.35-17.09q-62.385,0-90.51,68.98l-6.72,17.09L3080.7,2473.87q-12.855,31.125-12.85,51.28,0,37.845,30.92,59.83t84.82,21.97h97.04q48.855,0,76.03-20.74,27.2-20.745,27.19-57.97,0-54.285-76.98-54.29H3237.9Zm-66.72-288.08q-24.78,24.78-24.77,60.24t24.77,60.23q24.75,24.78,60.23,24.77,35.46,0,60.24-24.77,24.75-24.75,24.76-60.23t-24.76-60.24q-24.78-24.75-60.24-24.76T3258.62,1969.71Zm819.99-87.51,7.33-16.49q9.135-23.805,9.16-42.75,0-24.42-18.32-41.22-18.3-16.785-44.54-16.79-62.25,0-97.03,85.5l-136.1,334.07q-43.92-52.56-117.67-52.57-99.99,0-180.17,93.9-80.175,93.915-80.17,211.58,0,76.83,40.47,123.17,40.47,46.365,108.04,46.35h77.52q44.55,0,83.62-39.07,21.96,39.075,69.58,39.07h82.39q48.33,0,75.85-20.74t27.53-57.97q0-54.285-77.74-54.29h-69.58ZM3564.1,2422.66q0-61.59,41.12-114.65t88.66-53.06q23.13,0,38.67,12.81,15.54,12.795,15.55,31.09,0,10.995-8.52,31.72l-45.64,112.83q-13.38,33.555-55.36,33.55h-23.19q-51.3,0-51.29-54.29h0Z"/>
</svg>
